<?xml version="1.0" encoding="UTF-8"?>
<svg id="Capa_1" data-name="Capa 1" xmlns="http://www.w3.org/2000/svg" viewBox="0 0 600 600">
  <defs>
    <style>
      .cls-1 {
        fill: #9cbbaf;
        opacity: .4;
      }

      .cls-1, .cls-2, .cls-3, .cls-4 {
        stroke-width: 0px;
      }

      .cls-5 {
        stroke: #000;
        stroke-miterlimit: 10;
        stroke-width: 2px;
      }

      .cls-2 {
        fill-rule: evenodd;
      }

      .cls-2, .cls-4 {
        fill: #fff;
      }
    </style>
  </defs>
  <circle class="cls-1" cx="300" cy="300" r="250.76"/>
  <circle class="cls-1" cx="300" cy="300" r="170.25"/>
  <path class="cls-2" d="m373.38,474.49l-51.21-71.61,6.87-12.86s5.76-1.33,6.65-1.33,12.08,2.88,12.08,2.88l22.06,25.05,1.55-95.99,10.2-11.75s8.2.22,9.31,0,12.66,5.32,12.66,5.32l3.31,50.99,49.22-.89,3.99,7.32,23.94,2.66,2.22,102.64-112.84-2.44Z"/>
  <path class="cls-4" d="m97.59,97.83v292.69h406.59V97.83H97.59Zm68.95,166.71l-39.46-21.89,39.46-22.01v43.9Zm133.9,7.2c-52.68,0-95.39-11.7-95.39-26.13s42.71-26.13,95.39-26.13c14.02,0,27.33.83,39.32,2.32,1.17.15-14.39,22.21-13.24,22.37,5.32.73,7.61,5.01,12.3,5.99,1.31.27,22.05-24.76,23.31-24.47,20.62,4.79,33.7,11.94,33.7,19.93,0,14.43-42.71,26.13-95.39,26.13Zm132.03-7.14v-43.9l39.46,21.89-39.46,22.01Z"/>
  <g>
    <path class="cls-3" d="m508.24,97.03c0-2.91-2.36-5.27-5.27-5.27H97.03c-2.91,0-5.27,2.36-5.27,5.27v291.23c0,2.91,2.36,5.27,5.27,5.27h223.11l-.93,3.57c-.43,1.64-.62,3.33-.57,5.02v.32s-.05.32-.05.32c-1.31,6.61,21.44,34.61,32.38,48.06,6.82,8.39,12.2,15.01,14,18.23l.38.67,10.06-3.26c-4.11-7.52-23.21-31.71-32.5-43.47-8.75-11.08-11.22-14.26-11.96-15.59-1.92-2.33-2.4-5.31-1.27-8.12,1.27-3.16,4.36-5.47,7.7-5.75h.22s1.16,0,1.16,0c2.06.18,3.91,1.11,5.4,2.69l.09.1,22.34,26.21c1.42,1.67,3.77,2.28,5.85,1.52,2.06-.75,3.44-2.73,3.44-4.93v-91.11c0-.41,0-.83.03-1.26l-.03-.21c-.14-5.02,2.92-9.53,7.81-11.5,4.64-1.86,9.8-.87,13.15,2.53,3.79,2.5,4.61,11.8,3.82,43-.14,5.66-.32,12.69-.07,13.8l.07.33v.34c-.01.22,0,.44.02.65l.02.22-.02.3c-.23,2.29-.14,4.91-.06,7.21.06,1.8.12,3.47.04,4.91.03,2.84,2.4,5.18,5.27,5.18,1.58,0,2.69-.38,3.45-1.16,2.22-2.29,2.02-7.97,1.86-12.53-.05-1.51-.1-2.94-.07-4.21,0-.28.02-.47.03-.66.02-4.36,3.59-7.93,7.96-7.93,3.66,0,6.83,2.49,7.71,6.05l.1.4-.02.41c-.11,2.41.02,4.95.14,7.4.14,2.81.25,5.21.03,7.14.06,2.78,2.43,5.09,5.27,5.09,1.52.03,2.61-.33,3.39-1.14,2.52-2.61,2.17-9.68,1.92-14.85l-.08-1.64v-.22c.03-.21.04-.42.04-.64-.05-3.96,2.56-7.07,6.48-7.74,4.02-.68,7.82,1.42,9.03,5.02l.14.47v.35c.03.63.1,1.26.21,1.85l.06.32-.03,1c-.07,2.03-.15,4.33.06,6.44l.04.45-.1.44c-.65,2.98-.04,6.26,1.53,8.17.94,1.15,2.25,1.77,3.72,1.7,1.59.06,2.82-.5,3.79-1.66,1.54-1.84,2.19-5.06,1.61-8l-.08-.38.03-.38c.36-4.71,4.22-7.09,7.97-7.09.11,0,.22,0,.33,0,3.81.16,7.64,2.9,7.6,7.84v87.38h-114.77c-.12,1.65-.1,3.17.06,4.53l.02.2-.03.57v26.44c0,2.91,2.37,5.27,5.27,5.27h114.72c2.91,0,5.27-2.36,5.27-5.27l-.02-109.45h12.41c1.41,0,2.73-.55,3.73-1.54,1-1,1.54-2.32,1.54-3.73V97.03Zm-28.2,400.68h-104.18v-15.93h104.18v15.93Zm-114.74-92.87l-9.63-11.31h9.63v11.31Zm132.4-21.85h-6.97l-.4-2.38c-.9-5.37-4.48-10.23-9.58-12.99-5.02-2.72-10.73-3.05-15.67-.9l-2.4,1.04-1.24-2.3c-2.34-4.32-7.01-7.51-12.5-8.52-5.56-1.03-10.93.25-14.72,3.51l-1.78,1.53-1.84-1.45c-4.33-3.42-10.56-4.77-15.9-3.45l-3.49.87-.04-3.6c-.04-3.02.04-6.22.11-9.32v-.11c.48-20.42.93-39.71-23.15-41.34-12.57.04-22.82,10.33-22.82,22.93v56.5H102.29V102.3h395.4v280.68Z"/>
    <path class="cls-3" d="m339.56,349.89c-.6-1.03-1.81-2.26-4.22-2.21h-70.75c-1.9,0-3.3.74-4.15,2.2-1.05,1.8-1.05,4.32,0,6.13.59,1.01,1.78,2.21,4.12,2.21h.1s70.64,0,70.64,0h.11c1.9,0,3.3-.74,4.15-2.2,1.05-1.8,1.05-4.32,0-6.13Z"/>
    <path class="cls-3" d="m125.28,238.08c-1.64.88-2.58,2.53-2.58,4.54,0,1.95.9,3.63,2.42,4.48.84.37,2.98,1.62,10.44,6.02,8.97,5.31,27.52,16.29,31.64,17.71h.47c1.28.03,2.66-.56,3.68-1.58,1.01-1.02,1.58-2.34,1.55-3.64v-45.91c.06-1.85-.91-3.49-2.64-4.49-1.34-.78-3.4-1.21-5.19-.11l-39.77,22.98Zm37.07,18.36l-23.89-13.81,23.89-13.78v27.59Z"/>
    <path class="cls-3" d="m474.8,238.15s-12.38-7.15-32.26-18.64l-7.52-4.35c-.77-.47-1.61-.71-2.5-.71s-1.88.27-2.75.77c-1.71.99-2.7,2.64-2.65,4.41v45.94c-.03,1.34.54,2.68,1.55,3.7,1.02,1.03,2.31,1.6,3.67,1.58h.46c4.09-1.39,22.74-12.42,31.73-17.74,7.07-4.18,9.44-5.57,10.39-5.99,1.48-.82,2.39-2.49,2.39-4.44,0-1.99-.93-3.69-2.5-4.53Zm-37.14,18.28v-27.59l23.89,13.78-23.89,13.81Z"/>
  </g>
  <g>
    <path class="cls-5" d="m304.88,245.62h0c0-4.05-3.54-6.45-6.51-7.75-3.7-1.62-8.84-2.54-14.13-2.54h-.04c-9.97,0-20.69,3.22-20.69,10.29s10.73,10.29,20.69,10.29,20.68-3.22,20.68-10.29Zm-35.06.31l-.08-.15.06-.16c.49-1.18,5.32-4,14.4-4s13.48,2.61,14.28,3.8l.13.2-.13.2c-.79,1.19-5.49,3.8-14.28,3.8h-.36c-8.46-.08-13.46-2.66-14.03-3.69Z"/>
    <path class="cls-5" d="m366.02,183.38l-15.4,20.96-.22-.04c-.48-.09-.96-.18-1.44-.26l-1.84-.33c-.39-.07-.78-.14-1.18-.21-.99-.17-1.98-.33-2.98-.48l-1.64-.26c-.52-.08-1.04-.17-1.57-.24-1.29-.19-2.6-.35-3.92-.52l-.4-.05c-.68-.09-1.35-.18-2.05-.26-.89-.1-1.78-.2-2.68-.29l-1.19-.12c-.88-.1-1.75-.2-2.63-.28-1.24-.12-2.49-.21-3.75-.31l-2.87-.22c-1.29-.09-2.59-.16-3.89-.23l-1.08-.06c-.57-.03-1.14-.07-1.72-.09-1.11-.05-2.23-.09-3.34-.12l-1.07-.03c-.39-.01-.79-.03-1.18-.04-.39-.01-.78-.03-1.17-.04-2.44-.05-4.67-.08-6.82-.08-49.85,0-102.84,12.86-102.84,36.69v15.1c.01,29.04,45.18,51.79,102.85,51.79s102.83-22.75,102.83-51.79v-15.1c0-.63-.04-1.27-.14-1.94-.03-.23-.09-.45-.14-.68l-.1-.51c-.05-.25-.09-.49-.16-.73-.07-.26-.16-.51-.25-.76l-.19-.55c-.06-.19-.13-.39-.21-.58-.09-.22-.2-.44-.31-.66l-.31-.64c-.09-.19-.17-.38-.28-.57-.14-.24-.3-.49-.45-.73l-.19-.3c-.08-.12-.16-.25-.24-.38-.09-.14-.18-.29-.28-.43-.15-.22-.33-.44-.5-.66l-.47-.6c-.14-.18-.28-.37-.44-.55-.21-.25-.43-.49-.66-.72l-.4-.43c-.2-.22-.4-.43-.61-.64-.16-.16-.34-.32-.51-.48l-.56-.52c-.28-.25-.55-.51-.85-.76-.18-.15-.37-.3-.56-.45l-.64-.5c-.33-.26-.66-.51-1-.77l-.18-.13c-.2-.14-.41-.29-.62-.43-.53-.38-1.07-.75-1.64-1.11-.14-.09-.28-.18-.42-.27l-.32-.2c-.63-.4-1.29-.79-1.97-1.18l-.19-.1c-.14-.08-.27-.15-.41-.22-.77-.43-1.55-.84-2.36-1.25l-.48-.24c-.87-.43-1.79-.86-2.72-1.29l-.36-.15c-1.21-.54-2.16-.94-3.08-1.31l-.44-.18c-.76-.3-1.54-.61-2.33-.9l-.47-.17,10.5-12.64c2.07-2.49,3.05-5.75,2.7-8.95-.34-3.21-2-6.19-4.54-8.17-2.54-1.98-5.83-2.87-9.02-2.43-3.19.45-6.12,2.19-8.03,4.78Zm-163.06,56.76l.35-.17.79-.32c-.13-.35-.25-.73-.36-1.13-.04-.14-.08-.3-.11-.44-.09-.43-.15-.86-.17-1.28h0v-.36c-.01-14.38,39.64-30.4,96.55-30.4,3.45,0,7.11.07,11.21.23.19,0,.38.01.56.02.19,0,.38,0,.56.02,3.5.16,7.01.38,10.44.65l1.54.12c3.24.27,6.5.62,9.98,1.05.55.07,1.02.12,1.48.19,3.5.46,6.66.94,9.65,1.47l1.06.19-7.64,10.4-.21-.03c-12.56-1.72-25.35-2.59-38.01-2.59-.21,0-.42,0-.62,0-42.2,0-79.42,8.7-94.99,22.18l.05.1-1.77.74-.33-.64Zm97.05,56.9c-52.34,0-96.56-20.83-96.56-45.5v-1.78l.6.56c8.66,8.08,24.98,14.51,47.21,18.58,16.04,2.84,32.41,4.27,48.74,4.23,35.6,0,79.07-7.05,95.95-22.81l.59-.55.02,1.76c0,24.67-44.21,45.5-96.55,45.5Zm-68.66-39.63l.95-.36c3.53-1.35,7.22-1.98,10.95-1.89,8.89,0,13.83,2.96,14.21,4.09l.04.11-.03.11c-.14.44-1.46,1.96-5.6,3.11l-.08.02-.44-.09c-.9-.17-1.8-.35-2.68-.53l-.28-.06c-5.41-1.12-10.82-2.54-16.07-4.21l-.97-.31Zm149.63-37.01l.03-.07.36.24c.81.4,1.51.78,2.2,1.16l.22.13c.14.08.27.16.42.23.52.29,1,.57,1.47.86.38.24.74.47,1.09.71.28.17.57.36.84.54.45.31.88.62,1.3.93l.13.09c.06.05.12.09.17.13.06.05.13.09.19.14,4.1,3.14,6.47,6.36,7.03,9.54.09.51.12.98.12,1.42,0,.53-.06,1.08-.18,1.63-.02.08-.04.15-.06.22-.01.04-.03.09-.04.13l.26-.25-.97,2.26-.19-.17-.77.73.41-1.05c-6.74-5.85-17.49-10.8-31.96-14.7l-.54-.14,7.61-9.16.23.08c3.65,1.24,7.22,2.72,10.63,4.38Zm-5.31-35.62h.03c2.2,0,4.22,1.29,5.16,3.28.93,1.99.62,4.37-.79,6.06l-42.91,51.64c-1.11,1.34-.92,3.33.41,4.44,1.29,1.07,3.18.93,4.31-.27l.11-.14,16.07-19.34.22.05c15.36,3.81,26.82,8.88,33.12,14.66l.29.26-.29.26c-11.6,10.53-44.37,21.15-91.4,21.15-.21,0-.42,0-.64,0-12.32,0-24.76-.84-36.97-2.51l-.64-.09.41-.49c1.02-1.22,1.59-2.76,1.6-4.34,0-6.93-10.32-10.56-20.52-10.56-8.08,0-15.35,2.3-18.52,5.87l-.16.18-.23-.09c-5.72-2.14-11.02-5.21-15.73-9.13l-.31-.26.3-.28c13.63-12.63,50.37-21.12,91.42-21.12h.23c11.17,0,22.45.69,33.52,2.04l.13-.17,1.03,1.03-.83-.09-9.71,13.24c-.7.96-.81,2.22-.27,3.29.52,1.01,1.53,1.66,2.66,1.71h.14s.02,0,.03,0c.99,0,1.93-.48,2.51-1.28l41.65-56.71c1.07-1.45,2.79-2.31,4.58-2.31Z"/>
  </g>
</svg>