<?xml version="1.0" encoding="UTF-8"?>
<svg id="Capa_1" data-name="Capa 1" xmlns="http://www.w3.org/2000/svg" viewBox="0 0 600 600">
  <defs>
    <style>
      .cls-1 {
        fill: #9cbbaf;
        opacity: .4;
      }

      .cls-1, .cls-2, .cls-3, .cls-4 {
        stroke-width: 0px;
      }

      .cls-2, .cls-3 {
        fill: #fff;
      }

      .cls-2, .cls-4 {
        fill-rule: evenodd;
      }
    </style>
  </defs>
  <circle class="cls-1" cx="300" cy="300" r="250.76"/>
  <circle class="cls-1" cx="300" cy="300" r="170.25"/>
  <path class="cls-3" d="m539.36,179.63l-16.85-9.53H74.69l-8.42,4.44-7.09,14.62v229.41l7.98,12.6,15.04,3.13h444.32l9.68-4.77,4.94-14.66-1.77-235.24Zm-135.9,167.71h-53.21l2-23.64h13.36l4.6-8.94-4.6-9.55-233.83-.18-7.32,8.62,5.68,10.05h13.28l1.49,23.64h-57.36v-143.66h315.91v143.66Zm119.71-114.39l-71.16-1.33v-29.6h71.16v30.93Z"/>
  <polygon class="cls-2" points="74.69 170.1 106.17 140.84 480.84 140.84 522.52 170.1 74.69 170.1"/>
  <path class="cls-4" d="m82.19,201.93v199.2c0,2.84,2.31,5.15,5.15,5.15h316.64c2.84,0,5.15-2.31,5.15-5.15v-199.2c0-2.84-2.31-5.15-5.15-5.15H87.35c-2.84,0-5.15,2.31-5.15,5.15Zm317.41,141.25h-50.39l-1.05,9.55h51.41v38.85c0,2.84-2.31,5.15-5.15,5.15H96.89c-2.84,0-5.15-2.31-5.15-5.15v-38.85h55.45l-1.63-9.55h-53.82v-131.7c0-2.84,2.31-5.15,5.15-5.15h297.56c2.84,0,5.15,2.31,5.15,5.15v131.7Z"/>
  <path class="cls-4" d="m545.74,413.81v-223.55c0-8.68-4.4-16.66-11.77-21.33h0s-45.61-30.55-45.61-30.55c-2.02-1.36-4.41-2.08-6.84-2.08l-372.32-.02c-2.89,0-5.69,1.02-7.9,2.87l-36.65,30.71c-.8.58-1.62,1.26-2.51,2.09l-.08.06c-5.01,4.81-7.8,11.31-7.8,18.27v223.55c0,13.96,11.32,25.28,25.28,25.28h28.29v16.57c0,4.44,3.6,8.04,8.04,8.04h19.1c4.44,0,8.04-3.6,8.04-8.04v-16.57h306.29v16.57c0,4.44,3.6,8.04,8.04,8.04h19.1c4.44,0,8.04-3.6,8.04-8.04v-16.57l35.98-.02c13.94,0,25.28-11.34,25.28-25.28ZM112.66,145.83h365.96c2.44,0,4.82.72,6.85,2.08l25.51,17.09H85.32l19.44-16.3c2.21-1.86,5.01-2.87,7.9-2.87Zm16.78,308.33h-8.03c-2.22,0-4.03-1.8-4.03-4.03v-11.04h16.09v11.04c0,2.22-1.8,4.03-4.03,4.03Zm298.61-24.59l-348.51-.02c-8.68,0-15.73-7.06-15.73-15.73v-223.55c0-4.18,1.63-8.12,4.59-11.1l2.13-1.78c2.7-1.86,5.8-2.83,9.02-2.83h348.51v255.02Zm42.71,24.59h-7.73c-2.31,0-4.18-1.87-4.18-4.18v-10.89s16.09,0,16.09,0v10.89c0,2.31-1.87,4.18-4.18,4.18Zm-33.16-24.61v-255.02l82.87.02c8.68,0,15.73,7.06,15.73,15.73v223.53c0,8.68-7.06,15.73-15.73,15.73h-82.87Z"/>
  <path class="cls-4" d="m447.51,201.3v31.66c0,2.67,2.17,4.84,4.84,4.84h71.09c2.67,0,4.84-2.17,4.84-4.84v-31.66c0-2.67-2.17-4.84-4.84-4.84h-71.09c-2.67,0-4.84,2.17-4.84,4.84Zm66.38,26.95h-52c-2.67,0-4.84-2.17-4.84-4.84v-12.56c0-2.67,2.17-4.84,4.84-4.84h52c2.67,0,4.84,2.17,4.84,4.84v12.56c0,2.67-2.17,4.84-4.84,4.84Z"/>
  <path class="cls-4" d="m487.89,255.56c-10.2,0-18.49,8.3-18.49,18.49.02,10.2,8.31,18.49,18.49,18.49s18.49-8.3,18.49-18.49-8.3-18.49-18.49-18.49Zm0,27.44c-4.93,0-8.94-4.01-8.94-8.95.02-4.93,4.03-8.94,8.94-8.94s8.94,4.01,8.94,8.94-4.01,8.95-8.94,8.95Z"/>
  <path class="cls-4" d="m487.89,305.21c-10.2,0-18.49,8.3-18.49,18.49.02,10.2,8.31,18.49,18.49,18.49s18.49-8.3,18.49-18.49-8.3-18.49-18.49-18.49Zm0,27.44c-4.93,0-8.94-4.01-8.94-8.94.02-4.93,4.03-8.95,8.94-8.95s8.94,4.01,8.94,8.95-4.01,8.94-8.94,8.94Z"/>
  <path class="cls-4" d="m487.89,353.72c-10.2,0-18.49,8.3-18.49,18.49.02,10.2,8.31,18.49,18.49,18.49s18.49-8.3,18.49-18.49-8.3-18.49-18.49-18.49Zm0,27.46c-4.93,0-8.94-4.01-8.94-8.94.02-4.93,4.03-8.94,8.94-8.94s8.94,4.01,8.94,8.94-4.01,8.94-8.94,8.94Z"/>
  <path class="cls-4" d="m454.07,418.58h67.67c2.63,0,4.77-2.14,4.77-4.77s-2.14-4.77-4.77-4.77h-67.67c-2.63,0-4.77,2.14-4.77,4.77s2.14,4.77,4.77,4.77Z"/>
  <path class="cls-4" d="m177.21,219.33h-64.61c-2.64,0-4.77,2.14-4.77,4.77v44.15c0,2.49,1.82,4.72,4.3,4.96,2.85.28,5.25-1.96,5.25-4.75v-34.44c0-2.84,2.31-5.15,5.15-5.15h54.47c2.49,0,4.72-1.82,4.96-4.3.28-2.85-1.96-5.25-4.75-5.25Z"/>
  <path class="cls-4" d="m274.65,289.51c2.19,0,3.98-1.78,3.98-3.98,0-1.97.79-2.86,3.06-4.9,2.41-2.16,5.7-5.11,5.7-10.82s-3.29-8.67-5.7-10.82c-2.27-2.04-3.06-2.93-3.06-4.9s.79-2.86,3.06-4.9c2.41-2.16,5.7-5.11,5.7-10.82,0-2.19-1.78-3.98-3.98-3.98s-3.98,1.78-3.98,3.98c0,1.97-.79,2.86-3.06,4.9-2.41,2.16-5.7,5.11-5.7,10.82s3.29,8.67,5.7,10.82c2.27,2.04,3.06,2.93,3.06,4.9s-.79,2.86-3.06,4.9h0c-2.41,2.16-5.7,5.11-5.7,10.82,0,2.19,1.78,3.98,3.98,3.98Z"/>
  <path class="cls-4" d="m248.3,279.32c2.19,0,3.98-1.78,3.98-3.98,0-1.97.79-2.86,3.06-4.9,2.41-2.16,5.7-5.11,5.7-10.82s-3.29-8.67-5.7-10.82c-2.27-2.04-3.06-2.93-3.06-4.9s.79-2.86,3.06-4.9c2.41-2.16,5.7-5.11,5.7-10.82,0-2.19-1.78-3.98-3.98-3.98s-3.98,1.78-3.98,3.98c0,1.97-.79,2.86-3.06,4.9-2.41,2.16-5.7,5.11-5.7,10.82s3.29,8.67,5.7,10.82c2.27,2.04,3.06,2.93,3.06,4.9s-.79,2.86-3.06,4.9h0c-2.41,2.16-5.7,5.11-5.7,10.82,0,2.19,1.78,3.98,3.98,3.98Z"/>
  <path class="cls-4" d="m221.95,289.51c2.19,0,3.98-1.78,3.98-3.98,0-1.97.79-2.86,3.06-4.9,2.41-2.16,5.7-5.11,5.7-10.82s-3.29-8.67-5.7-10.82c-2.27-2.04-3.06-2.93-3.06-4.9s.79-2.86,3.06-4.9c2.41-2.16,5.7-5.11,5.7-10.82,0-2.19-1.78-3.98-3.98-3.98s-3.98,1.78-3.98,3.98c0,1.97-.79,2.86-3.06,4.9-2.41,2.16-5.7,5.11-5.7,10.82s3.29,8.67,5.7,10.82c2.27,2.04,3.06,2.93,3.06,4.9s-.79,2.86-3.06,4.9h0c-2.41,2.16-5.7,5.11-5.7,10.82,0,2.19,1.78,3.98,3.98,3.98Z"/>
  <path class="cls-4" d="m148.78,327.24h198.19l-3.97,35.74c-.33,2.94-1.43,5.49-2.84,7.12-1.42,1.63-2.93,2.42-5,2.42h-174.55c-2.07,0-3.59-.79-5-2.42-1.42-1.63-2.51-4.18-2.84-7.12l-3.98-35.74Zm-14.11-18.11h226.42c2.59,0,4.53,1.95,4.53,4.53s-1.94,4.53-4.53,4.53c-69.36-.02-156.99,0-226.42,0-2.59,0-4.53-1.94-4.53-4.53s1.95-4.53,4.53-4.53Zm200.48-9.12h-174.55m-14.23.06h-11.71c-7.45,0-13.58,6.14-13.58,13.58s6.14,13.58,13.58,13.58h4.99l4.09,36.74c.5,4.53,2.15,8.76,4.99,12.05,2.84,3.28,7.09,5.55,11.85,5.55h174.55c4.77,0,9-2.26,11.85-5.55,2.84-3.28,4.49-7.52,4.99-12.05l4.09-36.74h5c7.45,0,13.58-6.14,13.58-13.58s-6.14-13.58-13.58-13.58h-214.7Z"/>
</svg>