<?xml version="1.0" encoding="UTF-8"?>
<svg id="Capa_1" data-name="Capa 1" xmlns="http://www.w3.org/2000/svg" viewBox="0 0 600 600">
  <defs>
    <style>
      .cls-1 {
        stroke: #000;
        stroke-miterlimit: 10;
        stroke-width: .75px;
      }

      .cls-2 {
        fill: #9cbbaf;
        opacity: .4;
      }

      .cls-2, .cls-3 {
        stroke-width: 0px;
      }

      .cls-3 {
        fill: #fff;
        fill-rule: evenodd;
      }
    </style>
  </defs>
  <circle class="cls-2" cx="304.4" cy="300" r="250.76"/>
  <circle class="cls-2" cx="304.4" cy="300" r="170.25"/>
  <g>
    <path class="cls-3" d="m501.51,190.5h-92.84l-.89-20.4-323.65,2.16v164.77l9.29,40.12-9.29,19.74,28.91,26.19,7.32,25.68,35.25,14.3s40.43-24.95,32.26-48.19h257.17l1.77,16.3s45.04,74.13,76.15-14.56c1.59-4.52,44.68-5.75,44.68-5.75l3.99-102.42-70.11-117.94Zm-350.45,244.53c-6.24,0-11.31-5.06-11.31-11.31s5.06-11.31,11.31-11.31,11.31,5.06,11.31,11.31-5.06,11.31-11.31,11.31Zm331.73-.72c-6.24,0-11.31-5.06-11.31-11.31s5.06-11.31,11.31-11.31,11.31,5.06,11.31,11.31-5.06,11.31-11.31,11.31Zm50.03-134.31l-102.42-19.94v-54.24h68.73l37.24,66.47-3.55,7.71Z"/>
    <g>
      <path class="cls-1" d="m45.1,211.33h115.31c1.58.49,3.29.2,4.63-.79,1.32-.98,2.11-2.52,2.11-4.18s-.79-3.21-2.11-4.18c-1.34-.98-3.05-1.26-4.63-.77H45.1c-1.56-.49-3.29-.2-4.61.77-1.34.98-2.13,2.54-2.13,4.18s.79,3.21,2.13,4.18c1.32,1,3.05,1.28,4.61.79Z"/>
      <path class="cls-1" d="m30.23,238.13h115.31c1.58.49,3.29.2,4.63-.79,1.32-.98,2.11-2.52,2.11-4.18s-.79-3.21-2.11-4.18c-1.34-.98-3.05-1.26-4.63-.77H30.23c-1.56-.49-3.29-.2-4.61.77-1.34.98-2.13,2.54-2.13,4.18s.79,3.21,2.13,4.18c1.32,1,3.05,1.28,4.61.79Z"/>
      <g>
        <path class="cls-1" d="m144.6,417.2c1.53-1.51,3.55-2.32,5.72-2.32,1.97.02,4.27.87,5.82,2.44,1.53,1.55,2.34,3.59,2.32,5.76-.04,4.51-3.69,8.1-8.14,8.1h-.04c-2.18-.02-4.21-.89-5.74-2.44-1.53-1.55-2.36-3.61-2.34-5.78-.02-2.16.85-4.21,2.4-5.76h0Zm5.58,24.58h.1c10.26,0,18.68-8.34,18.76-18.62.04-5-1.87-9.73-5.38-13.3-3.51-3.55-8.2-5.54-13.22-5.6-5.18-.32-9.73,1.87-13.3,5.38-3.57,3.51-5.54,8.22-5.6,13.22-.04,5,1.87,9.73,5.38,13.3,3.55,3.59,8.24,5.6,13.26,5.62h0Z"/>
        <path class="cls-1" d="m482.75,431.17h-.04c-2.18-.02-4.21-.89-5.74-2.44-1.53-1.55-2.34-3.61-2.32-5.8.02-2.16.87-4.19,2.42-5.74,1.53-1.51,3.55-2.32,5.72-2.32h.08c2.18.02,4.21.89,5.74,2.44,1.53,1.55,2.34,3.59,2.32,5.76-.04,4.51-3.71,8.1-8.18,8.1h0Zm.18-26.88h-.18c-4.94,0-9.61,1.91-13.14,5.4-3.55,3.51-5.54,8.22-5.58,13.2-.04,5,1.87,9.73,5.38,13.3,3.51,3.57,8.22,5.58,13.24,5.62h.1c10.24,0,18.68-8.34,18.76-18.62.04-5-1.87-9.73-5.38-13.3-3.51-3.57-8.2-5.56-13.2-5.6h0Z"/>
        <path class="cls-1" d="m565.89,396.46c.26,6.89-5.14,12.69-11.85,12.92h-30.71c-3.12-9.35-9.11-17.39-17.53-22.75-9.71-6.15-21.22-8.18-32.38-5.66-14.67,3.3-26.19,14.31-30.95,28.39h-27.32v-37.48l-.02-163.84s.02-.02.02-.04l-.02-.81c-.5-5.86,3.57-11.12,8.68-11.89h68.95c5.42.3,10.18,3.32,12.9,8.24l50.6,84.47c6.43,10.82,9.79,23.21,9.63,35.83l.02,72.62h-.02Zm-83.14,59.2c-17.91,0-32.48-14.59-32.48-32.48.02-2.44.34-4.86.91-7.25,0-.04,0-.06.02-.1,2.72-12.15,12.35-21.8,24.5-24.5,2.36-.54,4.76-.81,7.13-.81,6.06,0,12.01,1.71,17.25,5.04,7.31,4.65,12.35,11.83,14.25,20.37.58,2.32.89,4.8.93,7.25,0,17.89-14.59,32.48-32.52,32.48h0Zm-364.02-39.82c2.72-12.15,12.35-21.78,24.5-24.5,2.36-.54,4.76-.81,7.13-.81,6.06,0,12.01,1.71,17.25,5.04,7.31,4.65,12.37,11.83,14.27,20.37.58,2.34.89,4.8.91,7.23,0,17.93-14.59,32.5-32.5,32.5-17.93-.02-32.5-14.61-32.5-32.46.02-2.46.34-4.88.91-7.27,0-.04.02-.06.02-.1h0Zm264.44,4.13h56.96c-.14,1.05-.44,2.1-.44,3.18,0,23.78,19.32,43.12,43.08,43.12s43.1-19.32,43.12-43.2c-.02-1.05-.3-2.03-.38-3.1h28.73c12.73-.44,22.69-11.18,22.25-23.72v-72.36c.14-14.51-3.71-28.79-11.14-41.33h0s-50.53-84.32-50.53-84.32c-4.39-7.96-12.41-13.02-21.8-13.56l-70,.04c-2.88.42-5.54,1.39-7.92,2.78v-10.16c-.22-7.56-6.49-12.98-13.98-13.4H97.33c-10.22.08-18.52,8.46-18.48,18.66v17.83c0,2.92,2.36,5.3,5.3,5.3s5.3-2.36,5.3-5.3l-.02-17.85c-.02-4.41,3.53-8.02,8.04-8.04h303.86c1.71,0,3.14,1.37,3.18,3.18v188.88l-298.78.02h-16.3v-126.32c0-2.92-2.36-5.3-5.3-5.3s-5.3,2.36-5.3,5.3v131.63c0,2.92,2.36,5.3,5.3,5.3h.87c-3.51,4.53-5.98,9.95-5.98,16.12,0,14.69,11.97,26.68,26.68,26.68h1.87c-.06,1.01-.36,2.04-.36,3.14,0,23.76,19.34,43.1,43.1,43.12,23.76,0,43.1-19.34,43.12-43.18,0-1.05-.3-2.04-.38-3.1h167.89l22.21-.02Zm-22.21-10.58l-170.1.02c-3.12-9.35-9.11-17.39-17.55-22.75-9.73-6.15-21.24-8.18-32.38-5.66-14.67,3.3-26.19,14.31-30.93,28.39h-4.23c-8.87,0-16.1-7.23-16.1-16.1s7.23-16.12,16.1-16.12h298.8v32.2h-21.4l-22.21.02Z"/>
        <path class="cls-1" d="m436.29,275.97l-.42-47.01,58.88-.4,35.36,63.95c.06.1.12.22.2.32.4.58.18,1.47.6,1.63-25.03-4.69-79.29-14.81-94.62-18.48h0Zm67.56-52.85c-1.81-2.8-4.84-4.57-8.48-4.76l-60.07.02c-5.86.66-10.09,5.76-9.59,11.18l.02,45.94c-.44,5.12,2.84,9.95,8.32,11.57,15.66,2.96,70.12,13.12,95.05,17.79.6.1,1.19.18,1.79.18,3.2,0,6.23-1.65,8.18-4.53,2.66-3.99,2.78-9.27.28-13.28l-35.5-64.1Z"/>
      </g>
      <path class="cls-1" d="m259.07,292.29c-8.22,0-15.64-4.95-18.79-12.54-3.15-7.61-1.4-16.35,4.41-22.17,5.82-5.82,14.56-7.56,22.16-4.41,7.61,3.15,12.56,10.57,12.56,18.79-.02,11.23-9.12,20.32-20.33,20.33h0Zm69.52-24.28h-10.75l8.81-9.57v.02c1.03-1.6.79-3.72-.6-5.01-1.39-1.31-3.5-1.45-5.04-.32l-13.75,14.89h-20.26c-.68-4.74-2.58-9.21-5.49-12.99l14.26-14.23,20.23.83c2.18,0,3.95-1.77,3.95-3.95s-1.77-3.95-3.95-3.95l-12.96-.56,7.59-7.59v.02c.83-.73,1.33-1.76,1.37-2.85.05-1.1-.37-2.16-1.16-2.95-.77-.77-1.84-1.19-2.95-1.16-1.1.05-2.13.56-2.84,1.39l-7.59,7.59-.15-12.96c0-1.05-.42-2.05-1.16-2.79-.74-.76-1.74-1.16-2.79-1.16-2.1.09-3.75,1.84-3.75,3.95l.79,20.23-14.38,14.64c-3.8-2.9-8.27-4.75-12.99-5.42v-20.18l14.89-13.9c.85-.68,1.37-1.7,1.47-2.78.08-1.1-.29-2.16-1.03-2.96-.74-.82-1.77-1.28-2.87-1.28-1.1-.02-2.14.43-2.9,1.22l-9.55,8.96v-10.75c0-2.18-1.77-3.95-3.95-3.95s-3.95,1.77-3.95,3.95v10.75l-9.52-8.81c-.77-.73-1.81-1.1-2.85-1.05s-2.05.51-2.76,1.28c-1.36,1.59-1.25,3.97.25,5.42l14.89,13.75v20.1c-4.8.69-9.32,2.65-13.11,5.65l-14.23-14.26.83-20.23c0-1.05-.42-2.05-1.16-2.79-.74-.74-1.74-1.16-2.79-1.16-2.18,0-3.95,1.77-3.95,3.95l-.51,12.96-7.62-7.59c-.73-.83-1.74-1.33-2.85-1.37-1.1-.05-2.16.37-2.95,1.16-.77.77-1.19,1.84-1.14,2.95.03,1.1.54,2.13,1.37,2.84l7.59,7.59-12.85.15c-2.18,0-3.95,1.77-3.95,3.95s1.77,3.95,3.95,3.95l20.5-.83,14.26,14.23c-2.85,3.81-4.72,8.27-5.42,12.99h-18.87l-15.01-15.01c-.74-.74-1.76-1.16-2.81-1.16s-2.05.42-2.81,1.16c-1.53,1.54-1.53,4.03,0,5.57l9.44,9.44h-11.49c-2.18,0-3.95,1.77-3.95,3.95s1.77,3.95,3.95,3.95h11.49l-9.44,9.4c-.74.74-1.16,1.76-1.16,2.81s.42,2.07,1.16,2.81c.76.74,1.76,1.16,2.81,1.14,1.05.02,2.07-.4,2.81-1.14l15.01-15.01h18.92c.68,4.75,2.53,9.27,5.42,13.11l-13.42,13.39h-21.21c-2.19,0-3.95,1.76-3.95,3.95s1.76,3.95,3.95,3.95h13.31l-7.9,8.13h-.02c-1.53,1.54-1.53,4.03,0,5.57,1.54,1.53,4.03,1.53,5.57,0l8.13-7.9v13.31h.02c0,2.18,1.76,3.95,3.95,3.95s3.95-1.77,3.95-3.95v-21.52l13.07-13.44c3.81,2.85,8.29,4.72,12.99,5.42v18.92l-15.01,15.01c-.74.74-1.16,1.76-1.16,2.81s.42,2.05,1.16,2.81c.76.73,1.76,1.14,2.81,1.14s2.07-.42,2.81-1.14l9.4-9.44v11.49c0,2.18,1.77,3.95,3.95,3.95s3.95-1.77,3.95-3.95v-11.49l9.44,9.44c1.54,1.53,4.03,1.53,5.57,0,.76-.76,1.17-1.76,1.17-2.81s-.42-2.07-1.17-2.81l-15.01-15.01v-18.92c4.72-.68,9.2-2.55,12.99-5.42l13.52,13.44v21.21-.02c0,2.19,1.77,3.95,3.95,3.95s3.95-1.76,3.95-3.95v-13.3l8.13,7.9c.76.74,1.76,1.14,2.81,1.14s2.04-.42,2.76-1.14c1.54-1.54,1.54-4.03,0-5.57l-7.9-8.13h13.31v-.02c2.18,0,3.95-1.76,3.95-3.95s-1.77-3.95-3.95-3.95h-21.4l-13.52-13.07c2.9-3.8,4.75-8.27,5.42-12.99h20.1l13.98,14.77c.74.8,1.79,1.27,2.89,1.27,1.57.02,3.01-.91,3.64-2.36.63-1.43.35-3.12-.73-4.27l-8.96-9.52h10.75c2.18,0,3.95-1.77,3.95-3.95s-1.77-3.95-3.95-3.95h0Z"/>
    </g>
  </g>
</svg>